<mxfile host="app.diagrams.net" modified="2022-11-04T13:07:39.724Z" agent="5.0 (Windows NT 10.0; Win64; x64) AppleWebKit/537.36 (KHTML, like Gecko) Chrome/107.0.0.0 Safari/537.36" etag="x0AlJBDsjM7HnZcWU9d7" version="20.3.0" type="github">
  <diagram name="Page-1" id="12e1b939-464a-85fe-373e-61e167be1490">
    <mxGraphModel dx="1778" dy="953" grid="1" gridSize="10" guides="1" tooltips="1" connect="1" arrows="1" fold="1" page="1" pageScale="1.5" pageWidth="1169" pageHeight="826" background="none" math="0" shadow="0">
      <root>
        <mxCell id="0" />
        <mxCell id="1" parent="0" />
        <mxCell id="exMJllvw3wtPo_MhhuSo-1" value="Customer Get Receipt" style="rounded=1;whiteSpace=wrap;html=1;fillColor=#FFF4C3;fontSize=16;" vertex="1" parent="1">
          <mxGeometry x="757" y="240" width="160" height="80" as="geometry" />
        </mxCell>
        <mxCell id="exMJllvw3wtPo_MhhuSo-11" value="" style="edgeStyle=orthogonalEdgeStyle;rounded=0;orthogonalLoop=1;jettySize=auto;html=1;fontSize=13;" edge="1" parent="1" source="exMJllvw3wtPo_MhhuSo-2" target="exMJllvw3wtPo_MhhuSo-9">
          <mxGeometry relative="1" as="geometry" />
        </mxCell>
        <mxCell id="exMJllvw3wtPo_MhhuSo-2" value="Backend Verification" style="shape=parallelogram;perimeter=parallelogramPerimeter;whiteSpace=wrap;html=1;fixedSize=1;fillColor=#FFF4C3;fontSize=14;" vertex="1" parent="1">
          <mxGeometry x="757" y="820" width="160" height="80" as="geometry" />
        </mxCell>
        <mxCell id="exMJllvw3wtPo_MhhuSo-10" value="" style="edgeStyle=orthogonalEdgeStyle;rounded=0;orthogonalLoop=1;jettySize=auto;html=1;fontSize=13;" edge="1" parent="1" source="exMJllvw3wtPo_MhhuSo-3" target="exMJllvw3wtPo_MhhuSo-2">
          <mxGeometry relative="1" as="geometry" />
        </mxCell>
        <mxCell id="exMJllvw3wtPo_MhhuSo-3" value="Upload &lt;br style=&quot;font-size: 15px;&quot;&gt;Receipt" style="rounded=0;whiteSpace=wrap;html=1;fillColor=#FFF4C3;fontSize=15;" vertex="1" parent="1">
          <mxGeometry x="757" y="680" width="160" height="80" as="geometry" />
        </mxCell>
        <mxCell id="exMJllvw3wtPo_MhhuSo-6" style="edgeStyle=orthogonalEdgeStyle;rounded=0;orthogonalLoop=1;jettySize=auto;html=1;fontSize=14;" edge="1" parent="1" source="exMJllvw3wtPo_MhhuSo-4" target="exMJllvw3wtPo_MhhuSo-5">
          <mxGeometry relative="1" as="geometry" />
        </mxCell>
        <mxCell id="exMJllvw3wtPo_MhhuSo-7" style="edgeStyle=orthogonalEdgeStyle;rounded=0;orthogonalLoop=1;jettySize=auto;html=1;exitX=1;exitY=0.5;exitDx=0;exitDy=0;entryX=1;entryY=0.5;entryDx=0;entryDy=0;fontSize=14;" edge="1" parent="1" source="exMJllvw3wtPo_MhhuSo-4" target="exMJllvw3wtPo_MhhuSo-3">
          <mxGeometry relative="1" as="geometry">
            <Array as="points">
              <mxPoint x="1007" y="440" />
              <mxPoint x="1007" y="720" />
            </Array>
          </mxGeometry>
        </mxCell>
        <mxCell id="exMJllvw3wtPo_MhhuSo-4" value="First Time Shopper" style="rhombus;whiteSpace=wrap;html=1;fillColor=#FFF4C3;fontSize=14;" vertex="1" parent="1">
          <mxGeometry x="747" y="395" width="180" height="90" as="geometry" />
        </mxCell>
        <mxCell id="exMJllvw3wtPo_MhhuSo-8" value="" style="edgeStyle=orthogonalEdgeStyle;rounded=0;orthogonalLoop=1;jettySize=auto;html=1;fontSize=14;" edge="1" parent="1" source="exMJllvw3wtPo_MhhuSo-5" target="exMJllvw3wtPo_MhhuSo-3">
          <mxGeometry relative="1" as="geometry" />
        </mxCell>
        <mxCell id="exMJllvw3wtPo_MhhuSo-5" value="Fill out &lt;br style=&quot;font-size: 15px;&quot;&gt;Information" style="rounded=0;whiteSpace=wrap;html=1;fillColor=#FFF4C3;fontSize=15;" vertex="1" parent="1">
          <mxGeometry x="757" y="530" width="160" height="80" as="geometry" />
        </mxCell>
        <mxCell id="exMJllvw3wtPo_MhhuSo-13" value="" style="edgeStyle=orthogonalEdgeStyle;rounded=0;orthogonalLoop=1;jettySize=auto;html=1;fontSize=13;" edge="1" parent="1" source="exMJllvw3wtPo_MhhuSo-9" target="exMJllvw3wtPo_MhhuSo-12">
          <mxGeometry relative="1" as="geometry" />
        </mxCell>
        <mxCell id="exMJllvw3wtPo_MhhuSo-9" value="Verifed Purchase ?" style="rhombus;whiteSpace=wrap;html=1;fontSize=13;fillColor=#FFF4C3;" vertex="1" parent="1">
          <mxGeometry x="752" y="960" width="170" height="80" as="geometry" />
        </mxCell>
        <mxCell id="exMJllvw3wtPo_MhhuSo-12" value="Notify Customer" style="rounded=0;whiteSpace=wrap;html=1;fillColor=#FFF4C3;fontSize=15;" vertex="1" parent="1">
          <mxGeometry x="757" y="1100" width="160" height="80" as="geometry" />
        </mxCell>
      </root>
    </mxGraphModel>
  </diagram>
</mxfile>
